<?xml version="1.0" encoding="UTF-8" standalone="no"?>
<!-- Created with Inkscape (http://www.inkscape.org/) -->

<svg
   version="1.1"
   id="svg25"
   xml:space="preserve"
   width="400"
   height="400"
   viewBox="0 0 400 400"
   xmlns="http://www.w3.org/2000/svg"
   xmlns:svg="http://www.w3.org/2000/svg"><defs
     id="defs29"><clipPath
       clipPathUnits="userSpaceOnUse"
       id="clipPath39"><path
         d="M 0,300 H 300 V 0 H 0 Z"
         id="path37" /></clipPath><linearGradient
       x1="0"
       y1="0"
       x2="1"
       y2="0"
       gradientUnits="userSpaceOnUse"
       gradientTransform="matrix(250.00049,0,0,-250.00049,25.000488,56.898437)"
       spreadMethod="pad"
       id="linearGradient71"><stop
         style="stop-opacity:1;stop-color:#ff9e00"
         offset="0"
         id="stop61" /><stop
         style="stop-opacity:1;stop-color:#ffe000"
         offset="0.31074429"
         id="stop63" /><stop
         style="stop-opacity:1;stop-color:#ffe000"
         offset="0.5"
         id="stop65" /><stop
         style="stop-opacity:1;stop-color:#ffe000"
         offset="0.79248118"
         id="stop67" /><stop
         style="stop-opacity:1;stop-color:#ff9e00"
         offset="1"
         id="stop69" /></linearGradient><linearGradient
       x1="0"
       y1="0"
       x2="1"
       y2="0"
       gradientUnits="userSpaceOnUse"
       gradientTransform="matrix(250.00049,0,0,-250.00049,25.000488,117.69141)"
       spreadMethod="pad"
       id="linearGradient97"><stop
         style="stop-opacity:1;stop-color:#ff9e00"
         offset="0"
         id="stop87" /><stop
         style="stop-opacity:1;stop-color:#ffe000"
         offset="0.31074429"
         id="stop89" /><stop
         style="stop-opacity:1;stop-color:#ffe000"
         offset="0.5"
         id="stop91" /><stop
         style="stop-opacity:1;stop-color:#ffe000"
         offset="0.79248118"
         id="stop93" /><stop
         style="stop-opacity:1;stop-color:#ff9e00"
         offset="1"
         id="stop95" /></linearGradient><linearGradient
       x1="0"
       y1="0"
       x2="1"
       y2="0"
       gradientUnits="userSpaceOnUse"
       gradientTransform="matrix(246.66714,0,0,-246.66714,27.500488,201.76465)"
       spreadMethod="pad"
       id="linearGradient123"><stop
         style="stop-opacity:1;stop-color:#ff9e00"
         offset="0"
         id="stop113" /><stop
         style="stop-opacity:1;stop-color:#ffff00"
         offset="0.10045627"
         id="stop115" /><stop
         style="stop-opacity:1;stop-color:#ffff00"
         offset="0.5"
         id="stop117" /><stop
         style="stop-opacity:1;stop-color:#ffff00"
         offset="0.89954373"
         id="stop119" /><stop
         style="stop-opacity:1;stop-color:#ff9e00"
         offset="1"
         id="stop121" /></linearGradient><linearGradient
       x1="0"
       y1="0"
       x2="1"
       y2="0"
       gradientUnits="userSpaceOnUse"
       gradientTransform="matrix(0,74.581757,74.581757,0,150.00098,167.44727)"
       spreadMethod="pad"
       id="linearGradient143"><stop
         style="stop-opacity:1;stop-color:#ffff00"
         offset="0"
         id="stop139" /><stop
         style="stop-opacity:1;stop-color:#ffbf00"
         offset="1"
         id="stop141" /></linearGradient><linearGradient
       x1="0"
       y1="0"
       x2="1"
       y2="0"
       gradientUnits="userSpaceOnUse"
       gradientTransform="matrix(-233.69388,102.24106,102.24106,233.69388,227.38086,173.10693)"
       spreadMethod="pad"
       id="linearGradient163"><stop
         style="stop-opacity:1;stop-color:#ffff00"
         offset="0"
         id="stop159" /><stop
         style="stop-opacity:1;stop-color:#ffbf00"
         offset="1"
         id="stop161" /></linearGradient><linearGradient
       x1="0"
       y1="0"
       x2="1"
       y2="0"
       gradientUnits="userSpaceOnUse"
       gradientTransform="matrix(63.228027,0,0,-63.228027,118.38623,239.69873)"
       spreadMethod="pad"
       id="linearGradient189"><stop
         style="stop-opacity:1;stop-color:#ff9e00"
         offset="0"
         id="stop179" /><stop
         style="stop-opacity:1;stop-color:#ffe000"
         offset="0.31074429"
         id="stop181" /><stop
         style="stop-opacity:1;stop-color:#ffe000"
         offset="0.5"
         id="stop183" /><stop
         style="stop-opacity:1;stop-color:#ffe000"
         offset="0.79248118"
         id="stop185" /><stop
         style="stop-opacity:1;stop-color:#ff9e00"
         offset="1"
         id="stop187" /></linearGradient><clipPath
       clipPathUnits="userSpaceOnUse"
       id="clipPath199"><path
         d="M 0,300 H 300 V 0 H 0 Z"
         id="path197" /></clipPath><linearGradient
       x1="0"
       y1="0"
       x2="1"
       y2="0"
       gradientUnits="userSpaceOnUse"
       gradientTransform="matrix(52.274323,-21.078354,-21.078354,-52.274323,130.44092,269.7041)"
       spreadMethod="pad"
       id="linearGradient221"><stop
         style="stop-opacity:1;stop-color:#fff400"
         offset="0"
         id="stop217" /><stop
         style="stop-opacity:1;stop-color:#ffbf00"
         offset="1"
         id="stop219" /></linearGradient><linearGradient
       x1="0"
       y1="0"
       x2="1"
       y2="0"
       gradientUnits="userSpaceOnUse"
       gradientTransform="matrix(62.55957,0,0,-62.55957,183.90039,223.69922)"
       spreadMethod="pad"
       id="linearGradient247"><stop
         style="stop-opacity:1;stop-color:#ff9e00"
         offset="0"
         id="stop237" /><stop
         style="stop-opacity:1;stop-color:#ffe000"
         offset="0.31074429"
         id="stop239" /><stop
         style="stop-opacity:1;stop-color:#ffe000"
         offset="0.5"
         id="stop241" /><stop
         style="stop-opacity:1;stop-color:#ffe000"
         offset="0.79248118"
         id="stop243" /><stop
         style="stop-opacity:1;stop-color:#ff9e00"
         offset="1"
         id="stop245" /></linearGradient><clipPath
       clipPathUnits="userSpaceOnUse"
       id="clipPath257"><path
         d="M 0,300 H 300 V 0 H 0 Z"
         id="path255" /></clipPath><linearGradient
       x1="0"
       y1="0"
       x2="1"
       y2="0"
       gradientUnits="userSpaceOnUse"
       gradientTransform="matrix(51.60289,-21.378342,-21.378342,-51.602875,193.74609,256.48926)"
       spreadMethod="pad"
       id="linearGradient279"><stop
         style="stop-opacity:1;stop-color:#fff400"
         offset="0"
         id="stop275" /><stop
         style="stop-opacity:1;stop-color:#ffbf00"
         offset="1"
         id="stop277" /></linearGradient><linearGradient
       x1="0"
       y1="0"
       x2="1"
       y2="0"
       gradientUnits="userSpaceOnUse"
       gradientTransform="matrix(62.55957,0,0,-62.55957,53.541504,223.69922)"
       spreadMethod="pad"
       id="linearGradient305"><stop
         style="stop-opacity:1;stop-color:#ff9e00"
         offset="0"
         id="stop295" /><stop
         style="stop-opacity:1;stop-color:#ffe000"
         offset="0.31074429"
         id="stop297" /><stop
         style="stop-opacity:1;stop-color:#ffe000"
         offset="0.5"
         id="stop299" /><stop
         style="stop-opacity:1;stop-color:#ffe000"
         offset="0.79248118"
         id="stop301" /><stop
         style="stop-opacity:1;stop-color:#ff9e00"
         offset="1"
         id="stop303" /></linearGradient><clipPath
       clipPathUnits="userSpaceOnUse"
       id="clipPath315"><path
         d="M 0,300 H 300 V 0 H 0 Z"
         id="path313" /></clipPath><linearGradient
       x1="0"
       y1="0"
       x2="1"
       y2="0"
       gradientUnits="userSpaceOnUse"
       gradientTransform="matrix(51.60289,-21.378342,-21.378342,-51.602875,63.387207,256.48926)"
       spreadMethod="pad"
       id="linearGradient337"><stop
         style="stop-opacity:1;stop-color:#fff400"
         offset="0"
         id="stop333" /><stop
         style="stop-opacity:1;stop-color:#ffbf00"
         offset="1"
         id="stop335" /></linearGradient><linearGradient
       x1="0"
       y1="0"
       x2="1"
       y2="0"
       gradientUnits="userSpaceOnUse"
       gradientTransform="matrix(69.187988,0,0,-69.187988,115.40674,206.41895)"
       spreadMethod="pad"
       id="linearGradient363"><stop
         style="stop-opacity:1;stop-color:#ff9e00"
         offset="0"
         id="stop353" /><stop
         style="stop-opacity:1;stop-color:#ffe000"
         offset="0.31074429"
         id="stop355" /><stop
         style="stop-opacity:1;stop-color:#ffe000"
         offset="0.5"
         id="stop357" /><stop
         style="stop-opacity:1;stop-color:#ffe000"
         offset="0.79248118"
         id="stop359" /><stop
         style="stop-opacity:1;stop-color:#ff9e00"
         offset="1"
         id="stop361" /></linearGradient><clipPath
       clipPathUnits="userSpaceOnUse"
       id="clipPath373"><path
         d="M 0,300 H 300 V 0 H 0 Z"
         id="path371" /></clipPath><linearGradient
       x1="0"
       y1="0"
       x2="1"
       y2="0"
       gradientUnits="userSpaceOnUse"
       gradientTransform="matrix(57.123657,-23.665512,-23.665512,-57.123657,126.27295,243.63135)"
       spreadMethod="pad"
       id="linearGradient395"><stop
         style="stop-opacity:1;stop-color:#fff400"
         offset="0"
         id="stop391" /><stop
         style="stop-opacity:1;stop-color:#ffbf00"
         offset="1"
         id="stop393" /></linearGradient></defs><g
     id="g31"
     transform="matrix(1.3333333,0,0,-1.3333333,0,400)"><g
       id="g33"><g
         id="g35"
         clip-path="url(#clipPath39)"><g
           id="g41"
           transform="translate(284.1025,81.1113)"><path
             d="m 0,0 c 0.164,0.402 0.309,0.813 0.428,1.235 0.015,0.053 0.034,0.105 0.049,0.158 0.122,0.455 0.212,0.92 0.282,1.389 0.016,0.114 0.029,0.229 0.043,0.344 0.052,0.446 0.087,0.895 0.091,1.349 0,0.031 0.005,0.062 0.005,0.094 V 4.643 4.65 126.155 c 0,2.929 -1.067,5.791 -2.929,7.861 -0.825,0.919 -1.795,1.651 -2.844,2.194 -0.373,0.239 -0.73,0.442 -1.069,0.634 -1.291,0.676 -2.451,1.071 -3.619,1.385 -0.016,0.003 -0.033,0.008 -0.048,0.013 l -18.033,5.069 v 23.537 c 0,0.663 -0.061,1.321 -0.168,1.968 -0.002,0.017 -0.003,0.032 -0.006,0.048 -0.02,0.115 -0.041,0.228 -0.064,0.343 -0.37,2.144 -1.14,4.084 -2.047,5.587 -2.299,3.739 -4.982,5.607 -7.694,7.205 -4.1,2.301 -8.708,3.748 -13.975,4.813 -5.248,1.04 -11.105,1.602 -17.328,1.605 -9.1,-0.021 -17.347,-1.18 -24.186,-3.386 -0.467,1.611 -1.144,3.042 -1.884,4.167 -2.441,3.643 -5.104,5.299 -7.808,6.784 -4.081,2.112 -8.672,3.442 -13.938,4.425 -5.25,0.96 -11.122,1.48 -17.36,1.482 -9.523,-0.019 -18.122,-1.174 -25.107,-3.377 -3.515,-1.144 -6.635,-2.462 -9.628,-4.682 -1.492,-1.134 -3.004,-2.524 -4.372,-4.63 -0.739,-1.123 -1.414,-2.55 -1.88,-4.155 -2.161,0.699 -4.44,1.276 -6.866,1.768 -5.249,1.039 -11.105,1.599 -17.326,1.602 -9.496,-0.019 -18.076,-1.267 -25.084,-3.662 -3.521,-1.243 -6.671,-2.69 -9.656,-5.089 -1.484,-1.219 -2.965,-2.716 -4.255,-4.87 -0.911,-1.507 -1.683,-3.455 -2.052,-5.607 -0.02,-0.103 -0.039,-0.204 -0.056,-0.306 -0.005,-0.032 -0.009,-0.063 -0.013,-0.095 -0.103,-0.638 -0.164,-1.286 -0.164,-1.938 v -23.537 l -18.082,-5.082 v -0.003 c -1.471,-0.405 -2.918,-0.888 -4.653,-1.998 -1.062,-0.546 -2.044,-1.284 -2.877,-2.212 -1.862,-2.07 -2.93,-4.932 -2.93,-7.861 V 4.693 c -10e-4,-0.036 0,-0.073 0,-0.11 V 4.569 c 0,-0.005 0.001,-0.011 0.001,-0.016 10e-4,-0.494 0.039,-0.983 0.099,-1.468 0.01,-0.092 0.021,-0.181 0.033,-0.271 0.071,-0.49 0.166,-0.973 0.294,-1.445 0.006,-0.021 0.013,-0.043 0.02,-0.065 0.127,-0.459 0.285,-0.906 0.464,-1.343 0.025,-0.059 0.047,-0.118 0.072,-0.177 0.392,-0.912 0.896,-1.766 1.502,-2.535 0.025,-0.032 0.049,-0.063 0.074,-0.095 0.598,-0.742 1.292,-1.401 2.074,-1.953 0.067,-0.048 0.133,-0.095 0.201,-0.14 0.386,-0.258 0.785,-0.501 1.211,-0.706 l 118.069,-56.543 0.339,-0.14 0.573,-0.239 c 1.632,-0.564 3.233,-0.934 4.828,-1.171 1.712,-0.255 3.416,-0.36 5.146,-0.373 3.338,0.025 6.59,0.373 9.978,1.546 l 0.85,0.353 0.061,0.026 20.027,9.592 98.041,46.952 c 0.421,0.203 0.815,0.441 1.197,0.696 0.076,0.051 0.151,0.103 0.225,0.157 0.772,0.547 1.457,1.196 2.05,1.929 0.034,0.044 0.068,0.088 0.102,0.131 0.593,0.757 1.088,1.593 1.474,2.489 C -0.063,-0.161 -0.032,-0.08 0,0"
             style="fill:#000000;fill-opacity:1;fill-rule:nonzero;stroke:none"
             id="path43" /></g><g
           id="g45"
           transform="translate(274.5391,219.3398)"><path
             d="M 0,0 V 0"
             style="fill:none;stroke:#000000;stroke-width:0.75;stroke-linecap:round;stroke-linejoin:round;stroke-miterlimit:4;stroke-dasharray:none;stroke-opacity:1"
             id="path47" /></g></g></g><g
       id="g49"><g
         id="g51"><g
           id="g57"><g
             id="g59"><path
               d="M 25,85.679 143.069,29.134 c 3.812,-1.355 10.051,-1.355 13.862,0 v 0 l 118.07,56.545 z"
               style="fill:url(#linearGradient71);stroke:none"
               id="path73" /></g></g></g></g><g
       id="g75"><g
         id="g77"><g
           id="g83"><g
             id="g85"><path
               d="M 25,207.266 V 85.679 L 143.069,29.134 c 3.812,-1.355 10.051,-1.355 13.862,0 v 0 l 118.07,56.545 v 121.587 z"
               style="fill:url(#linearGradient97);stroke:none"
               id="path99" /></g></g></g></g><g
       id="g101"><g
         id="g103"><g
           id="g109"><g
             id="g111"><path
               d="M 143.059,240.891 27.913,207.124 c -3.818,-1.018 -3.892,-2.986 -0.163,-4.375 v 0 l 115.472,-39.835 c 3.729,-1.387 9.828,-1.387 13.557,0 v 0 l 115.473,39.835 c 3.728,1.389 3.654,3.357 -0.163,4.375 v 0 l -115.147,33.767 c -1.908,0.51 -4.425,0.764 -6.941,0.764 v 0 c -2.517,0 -5.033,-0.254 -6.942,-0.764"
               style="fill:url(#linearGradient123);stroke:none"
               id="path125" /></g></g></g></g><g
       id="g127"><g
         id="g129"><g
           id="g135"><g
             id="g137"><path
               d="M 143.059,240.926 27.913,208.56 c -3.818,-0.974 -3.892,-2.85 -0.163,-4.175 v 0 l 115.472,-37.876 c 3.729,-1.326 9.828,-1.326 13.557,0 v 0 l 115.473,37.876 c 3.728,1.325 3.654,3.201 -0.163,4.175 v 0 l -115.147,32.366 c -1.908,0.486 -4.425,0.729 -6.941,0.729 v 0 c -2.517,0 -5.033,-0.243 -6.942,-0.729"
               style="fill:url(#linearGradient143);stroke:none"
               id="path145" /></g></g></g></g><g
       id="g147"><g
         id="g149"><g
           id="g155"><g
             id="g157"><path
               d="M 144.04,236.526 45.171,208.734 c -3.278,-0.835 -3.342,-2.448 -0.14,-3.584 v 0 l 99.149,-35.211 c 3.201,-1.138 8.44,-1.138 11.642,0 v 0 l 99.149,35.211 c 3.201,1.136 3.137,2.749 -0.14,3.584 v 0 l -98.87,27.792 c -1.639,0.417 -3.8,0.625 -5.96,0.625 v 0 c -2.161,0 -4.321,-0.208 -5.961,-0.625"
               style="fill:url(#linearGradient163);stroke:none"
               id="path165" /></g></g></g></g><g
       id="g167"><g
         id="g169"><g
           id="g175"><g
             id="g177"><path
               d="m 118.386,262.143 v -34.07 c 0,-5.976 14.155,-10.818 31.614,-10.818 v 0 c 17.46,0 31.615,4.842 31.615,10.818 v 0 34.07 z"
               style="fill:url(#linearGradient189);stroke:none"
               id="path191" /></g></g></g></g><g
       id="g193"><g
         id="g195"
         clip-path="url(#clipPath199)"><g
           id="g201"
           transform="translate(181.6143,260.5181)"><path
             d="m 0,0 c 0,-5.558 -14.154,-10.063 -31.614,-10.063 -17.459,0 -31.614,4.505 -31.614,10.063 0,5.558 14.155,10.064 31.614,10.064 C -14.154,10.064 0,5.558 0,0"
             style="fill:#ffff00;fill-opacity:1;fill-rule:nonzero;stroke:none"
             id="path203" /></g></g></g><g
       id="g205"><g
         id="g207"><g
           id="g213"><g
             id="g215"><path
               d="m 118.386,261.817 c 0,-5.557 14.155,-10.064 31.614,-10.064 v 0 c 17.46,0 31.615,4.507 31.615,10.064 v 0 c 0,5.559 -14.155,10.064 -31.615,10.064 v 0 c -17.459,0 -31.614,-4.505 -31.614,-10.064"
               style="fill:url(#linearGradient221);stroke:none"
               id="path223" /></g></g></g></g><g
       id="g225"><g
         id="g227"><g
           id="g233"><g
             id="g235"><path
               d="m 183.901,247.958 v -36.909 c 0,-6.412 14.005,-11.609 31.277,-11.609 v 0 c 17.277,0 31.282,5.197 31.282,11.609 v 0 36.909 z"
               style="fill:url(#linearGradient247);stroke:none"
               id="path249" /></g></g></g></g><g
       id="g251"><g
         id="g253"
         clip-path="url(#clipPath257)"><g
           id="g259"
           transform="translate(246.46,246.2163)"><path
             d="m 0,0 c 0,-5.963 -14.005,-10.799 -31.281,-10.799 -17.274,0 -31.279,4.836 -31.279,10.799 0,5.964 14.005,10.797 31.279,10.797 C -14.005,10.797 0,5.964 0,0"
             style="fill:#ffff00;fill-opacity:1;fill-rule:nonzero;stroke:none"
             id="path261" /></g></g></g><g
       id="g263"><g
         id="g265"><g
           id="g271"><g
             id="g273"><path
               d="m 183.901,247.611 c 0,-5.966 14.005,-10.801 31.277,-10.801 v 0 c 17.277,0 31.282,4.835 31.282,10.801 v 0 c 0,5.963 -14.005,10.797 -31.282,10.797 v 0 c -17.272,0 -31.277,-4.834 -31.277,-10.797"
               style="fill:url(#linearGradient279);stroke:none"
               id="path281" /></g></g></g></g><g
       id="g283"><g
         id="g285"><g
           id="g291"><g
             id="g293"><path
               d="m 53.542,247.958 v -36.909 c 0,-6.412 14.005,-11.609 31.28,-11.609 v 0 c 17.275,0 31.279,5.197 31.279,11.609 v 0 36.909 z"
               style="fill:url(#linearGradient305);stroke:none"
               id="path307" /></g></g></g></g><g
       id="g309"><g
         id="g311"
         clip-path="url(#clipPath315)"><g
           id="g317"
           transform="translate(116.1011,246.2163)"><path
             d="m 0,0 c 0,-5.963 -14.004,-10.799 -31.279,-10.799 -17.276,0 -31.281,4.836 -31.281,10.799 0,5.964 14.005,10.797 31.281,10.797 C -14.004,10.797 0,5.964 0,0"
             style="fill:#ffff00;fill-opacity:1;fill-rule:nonzero;stroke:none"
             id="path319" /></g></g></g><g
       id="g321"><g
         id="g323"><g
           id="g329"><g
             id="g331"><path
               d="m 53.542,247.611 c 0,-5.966 14.005,-10.801 31.28,-10.801 v 0 c 17.275,0 31.279,4.835 31.279,10.801 v 0 c 0,5.963 -14.004,10.797 -31.279,10.797 v 0 c -17.275,0 -31.28,-4.834 -31.28,-10.797"
               style="fill:url(#linearGradient337);stroke:none"
               id="path339" /></g></g></g></g><g
       id="g341"><g
         id="g343"><g
           id="g349"><g
             id="g351"><path
               d="M 115.407,234.202 V 192.05 c 0,-7.409 15.487,-13.415 34.593,-13.415 v 0 c 19.106,0 34.594,6.006 34.594,13.415 v 0 42.152 z"
               style="fill:url(#linearGradient363);stroke:none"
               id="path365" /></g></g></g></g><g
       id="g367"><g
         id="g369"
         clip-path="url(#clipPath373)"><g
           id="g375"
           transform="translate(184.5947,232.1924)"><path
             d="m 0,0 c 0,-6.894 -15.488,-12.482 -34.594,-12.482 -19.106,0 -34.594,5.588 -34.594,12.482 0,6.889 15.488,12.479 34.594,12.479 C -15.488,12.479 0,6.889 0,0"
             style="fill:#ffff00;fill-opacity:1;fill-rule:nonzero;stroke:none"
             id="path377" /></g></g></g><g
       id="g379"><g
         id="g381"><g
           id="g387"><g
             id="g389"><path
               d="m 115.407,233.8 c 0,-6.893 15.487,-12.478 34.593,-12.478 v 0 c 19.106,0 34.594,5.585 34.594,12.478 v 0 c 0,6.895 -15.488,12.481 -34.594,12.481 v 0 c -19.106,0 -34.593,-5.586 -34.593,-12.481"
               style="fill:url(#linearGradient395);stroke:none"
               id="path397" /></g></g></g></g></g></svg>
